<svg width="338pt" height="151pt"
 viewBox="0.00 0.00 338.00 151.00" xmlns="http://www.w3.org/2000/svg" xmlns:xlink="http://www.w3.org/1999/xlink">
<g id="graph0" class="graph" transform="scale(1 1) rotate(0) translate(4 147)">
<title>G</title>
<polygon fill="white" stroke="none" points="-4,4 -4,-147 334,-147 334,4 -4,4"/>
<!-- 0 -->
<g id="node1" class="node"><title>0</title>
<ellipse fill="lightgrey" stroke="black" cx="11" cy="-22" rx="7" ry="7"/>
<ellipse fill="none" stroke="black" cx="11" cy="-22" rx="11" ry="11"/>
</g>
<!-- 1 -->
<g id="node4" class="node"><title>1</title>
<ellipse fill="none" stroke="black" cx="65" cy="-44" rx="7" ry="7"/>
</g>
<!-- 0&#45;&gt;1 -->
<g id="edge2" class="edge"><title>0&#45;&gt;1</title>
<path fill="none" stroke="black" d="M21.5376,-26.0351C30.0515,-29.6372 42.5661,-34.9318 51.8051,-38.8406"/>
<polygon fill="black" stroke="black" points="50.9719,-41.1483 58.3733,-41.6195 52.8812,-36.6356 50.9719,-41.1483"/>
</g>
<!-- 2 -->
<g id="node5" class="node"><title>2</title>
<ellipse fill="none" stroke="black" cx="319" cy="-24" rx="7" ry="7"/>
</g>
<!-- 0&#45;&gt;2 -->
<g id="edge3" class="edge"><title>0&#45;&gt;2</title>
<path fill="none" stroke="black" d="M21.6961,-18.4653C39.6504,-12.2464 79.3993,-3.55271e-15 114,-0 114,-0 114,-0 216,-0 248.791,-3.55271e-15 285.973,-11.8982 305.106,-18.9395"/>
<polygon fill="black" stroke="black" points="304.722,-21.4144 312.136,-21.611 306.463,-16.834 304.722,-21.4144"/>
</g>
<!-- 13 -->
<g id="node2" class="node"><title>13</title>
<ellipse fill="lightgrey" stroke="black" cx="319" cy="-132" rx="7" ry="7"/>
<ellipse fill="none" stroke="black" cx="319" cy="-132" rx="11" ry="11"/>
</g>
<!-- 16 -->
<g id="node3" class="node"><title>16</title>
<ellipse fill="lightgrey" stroke="black" cx="319" cy="-77" rx="7" ry="7"/>
<ellipse fill="none" stroke="black" cx="319" cy="-77" rx="11" ry="11"/>
</g>
<!-- 13&#45;&gt;16 -->
<!-- 4 -->
<g id="node6" class="node"><title>4</title>
<ellipse fill="none" stroke="black" cx="115" cy="-86" rx="7" ry="7"/>
</g>
<!-- 1&#45;&gt;4 -->
<g id="edge4" class="edge"><title>1&#45;&gt;4</title>
<path fill="none" stroke="black" d="M70.7779,-48.1807C78.4691,-54.9104 93.7609,-68.2908 103.937,-77.1949"/>
<polygon fill="black" stroke="black" points="102.36,-79.0705 109.241,-81.8362 105.587,-75.3828 102.36,-79.0705"/>
</g>
<!-- 5 -->
<g id="node7" class="node"><title>5</title>
<ellipse fill="none" stroke="black" cx="115" cy="-44" rx="7" ry="7"/>
</g>
<!-- 1&#45;&gt;5 -->
<g id="edge5" class="edge"><title>1&#45;&gt;5</title>
<path fill="none" stroke="black" d="M72.2752,-44C79.4294,-44 91.3315,-44 100.597,-44"/>
<polygon fill="black" stroke="black" points="100.875,-46.4501 107.875,-44 100.875,-41.5501 100.875,-46.4501"/>
</g>
<!-- 9 -->
<g id="node8" class="node"><title>9</title>
<ellipse fill="none" stroke="black" cx="165" cy="-105" rx="7" ry="7"/>
</g>
<!-- 4&#45;&gt;9 -->
<g id="edge6" class="edge"><title>4&#45;&gt;9</title>
<path fill="none" stroke="black" stroke-dasharray="5,2" d="M121.886,-88.3298C129.307,-91.2673 142.252,-96.3914 151.837,-100.185"/>
<polygon fill="black" stroke="black" points="150.954,-102.471 158.364,-102.769 152.758,-97.9148 150.954,-102.471"/>
</g>
<!-- 11 -->
<g id="node9" class="node"><title>11</title>
<ellipse fill="none" stroke="black" cx="165" cy="-44" rx="7" ry="7"/>
</g>
<!-- 5&#45;&gt;11 -->
<g id="edge7" class="edge"><title>5&#45;&gt;11</title>
<path fill="none" stroke="black" stroke-dasharray="5,2" d="M122.275,-44C129.429,-44 141.332,-44 150.597,-44"/>
<polygon fill="black" stroke="black" points="150.875,-46.4501 157.875,-44 150.875,-41.5501 150.875,-46.4501"/>
</g>
<!-- 9&#45;&gt;13 -->
<g id="edge8" class="edge"><title>9&#45;&gt;13</title>
<path fill="none" stroke="black" d="M171.556,-107.662C179.457,-111.32 194.482,-117.809 208,-121 240.108,-128.58 278.691,-130.94 300.578,-131.673"/>
<polygon fill="black" stroke="black" points="300.778,-134.129 307.843,-131.876 300.914,-129.231 300.778,-134.129"/>
</g>
<!-- 14 -->
<g id="node10" class="node"><title>14</title>
<ellipse fill="none" stroke="black" cx="215" cy="-105" rx="7" ry="7"/>
</g>
<!-- 9&#45;&gt;14 -->
<g id="edge9" class="edge"><title>9&#45;&gt;14</title>
<path fill="none" stroke="black" d="M172.275,-105C179.429,-105 191.332,-105 200.597,-105"/>
<polygon fill="black" stroke="black" points="200.875,-107.45 207.875,-105 200.875,-102.55 200.875,-107.45"/>
</g>
<!-- 11&#45;&gt;16 -->
<g id="edge10" class="edge"><title>11&#45;&gt;16</title>
<path fill="none" stroke="black" d="M172.147,-45.3345C193.834,-50.0428 267.272,-65.9867 300.914,-73.2905"/>
<polygon fill="black" stroke="black" points="300.464,-75.6998 307.824,-74.7908 301.503,-70.9113 300.464,-75.6998"/>
</g>
<!-- 17 -->
<g id="node11" class="node"><title>17</title>
<ellipse fill="none" stroke="black" cx="215" cy="-35" rx="7" ry="7"/>
</g>
<!-- 11&#45;&gt;17 -->
<g id="edge11" class="edge"><title>11&#45;&gt;17</title>
<path fill="none" stroke="black" d="M172.275,-42.8234C179.502,-41.4684 191.572,-39.2052 200.877,-37.4606"/>
<polygon fill="black" stroke="black" points="201.446,-39.8466 207.875,-36.1484 200.543,-35.0305 201.446,-39.8466"/>
</g>
<!-- 32 -->
<g id="node12" class="node"><title>32</title>
<ellipse fill="none" stroke="black" cx="265" cy="-35" rx="7" ry="7"/>
</g>
<!-- 14&#45;&gt;32 -->
<g id="edge12" class="edge"><title>14&#45;&gt;32</title>
<path fill="none" stroke="black" d="M219.766,-99.5072C227.586,-88.1038 245.721,-61.6563 256.181,-46.4023"/>
<polygon fill="black" stroke="black" points="258.444,-47.4344 260.382,-40.2757 254.403,-44.6633 258.444,-47.4344"/>
</g>
<!-- 17&#45;&gt;32 -->
<g id="edge13" class="edge"><title>17&#45;&gt;32</title>
<path fill="none" stroke="black" d="M222.275,-35C229.429,-35 241.332,-35 250.597,-35"/>
<polygon fill="black" stroke="black" points="250.875,-37.4501 257.875,-35 250.875,-32.5501 250.875,-37.4501"/>
</g>
<!-- 32&#45;&gt;2 -->
<g id="edge14" class="edge"><title>32&#45;&gt;2</title>
<path fill="none" stroke="black" d="M278.847,-32.2824C286.814,-30.597 297.019,-28.4383 305.013,-26.7473"/>
<polygon fill="black" stroke="black" points="271.458,-31.3412 278.814,-32.2894 272.472,-36.1351 271.458,-31.3412"/>
<polygon fill="black" stroke="black" points="312.612,-27.6441 305.256,-26.6959 311.597,-22.8502 312.612,-27.6441"/>
</g>
</g>
</svg>