<svg xmlns="http://www.w3.org/2000/svg" xmlns:xlink="http://www.w3.org/1999/xlink" width="618pt" height="196pt" viewBox="0.00 0.00 617.97 195.68">
<g id="graph0" class="graph" transform="scale(1 1) rotate(0) translate(4 191.679)">
<title>G</title>
<polygon fill="white" stroke="none" points="-4,4 -4,-191.679 613.968,-191.679 613.968,4 -4,4"></polygon>
<!-- 0 -->
<g id="node1" class="node"><title>0</title>
<ellipse fill="lightgrey" stroke="black" cx="18.5" cy="-40.8794" rx="14.5" ry="14.5"></ellipse>
<ellipse fill="none" stroke="black" cx="18.5" cy="-40.8794" rx="18.5" ry="18.5"></ellipse>
<text text-anchor="middle" x="18.5" y="-36.6794" font-family="Times,serif" font-size="14.00">0</text>
</g>
<!-- 1 -->
<g id="node4" class="node"><title>1</title>
<ellipse fill="none" stroke="black" cx="112.391" cy="-65.8794" rx="14.5" ry="11.76"></ellipse>
<text text-anchor="middle" x="112.391" y="-61.6794" font-family="Times,serif" font-size="14.00">1</text>
</g>
<!-- 0&#45;&gt;1 -->
<g id="edge2" class="edge"><title>0-&gt;1</title>
<path fill="none" stroke="black" d="M36.7839,-45.5817C51.4546,-49.5731 72.6167,-55.3305 88.6583,-59.6948"></path>
<polygon fill="black" stroke="black" points="87.7727,-63.081 98.3408,-62.329 89.6104,-56.3265 87.7727,-63.081"></polygon>
<text text-anchor="middle" x="67.4453" y="-62.0794" font-family="Times,serif" font-size="14.00">dupl</text>
</g>
<!-- 2 -->
<g id="node5" class="node"><title>2</title>
<ellipse fill="none" stroke="black" cx="159.391" cy="-11.8794" rx="14.5" ry="11.76"></ellipse>
<text text-anchor="middle" x="159.391" y="-7.67939" font-family="Times,serif" font-size="14.00">2</text>
</g>
<!-- 0&#45;&gt;2 -->
<g id="edge3" class="edge"><title>0-&gt;2</title>
<path fill="none" stroke="black" d="M36.3985,-35.8961C42.2607,-34.2523 48.8942,-32.4864 55,-31.0794 82.2694,-24.7956 113.95,-19.1534 134.983,-15.6372"></path>
<polygon fill="black" stroke="black" points="135.632,-19.0775 144.931,-14.0002 134.495,-12.1704 135.632,-19.0775"></polygon>
<text text-anchor="middle" x="67.4453" y="-36.0794" font-family="Times,serif" font-size="14.00">dupl</text>
</g>
<!-- 13 -->
<g id="node2" class="node"><title>13</title>
<ellipse fill="lightgrey" stroke="black" cx="578.085" cy="-163.879" rx="14.5" ry="14.5"></ellipse>
<ellipse fill="none" stroke="black" cx="578.085" cy="-163.879" rx="18.5" ry="18.5"></ellipse>
<text text-anchor="middle" x="578.085" y="-159.679" font-family="Times,serif" font-size="14.00">13</text>
</g>
<!-- 16 -->
<g id="node3" class="node"><title>16</title>
<ellipse fill="lightgrey" stroke="black" cx="578.085" cy="-85.8794" rx="14.5" ry="14.5"></ellipse>
<ellipse fill="none" stroke="black" cx="578.085" cy="-85.8794" rx="18.5" ry="18.5"></ellipse>
<text text-anchor="middle" x="578.085" y="-81.6794" font-family="Times,serif" font-size="14.00">16</text>
</g>
<!-- 13&#45;&gt;16 -->
<!-- 4 -->
<g id="node6" class="node"><title>4</title>
<ellipse fill="none" stroke="black" cx="206.391" cy="-116.879" rx="14.5" ry="11.76"></ellipse>
<text text-anchor="middle" x="206.391" y="-112.679" font-family="Times,serif" font-size="14.00">4</text>
</g>
<!-- 1&#45;&gt;4 -->
<g id="edge4" class="edge"><title>1-&gt;4</title>
<path fill="none" stroke="black" d="M124.38,-72.7155C130.391,-76.4018 137.997,-80.9814 144.891,-84.8794 157.981,-92.2816 172.915,-100.186 184.671,-106.287"></path>
<polygon fill="black" stroke="black" points="183.195,-109.464 193.687,-110.937 186.404,-103.243 183.195,-109.464"></polygon>
<text text-anchor="middle" x="159.391" y="-105.079" font-family="Times,serif" font-size="14.00">dupl</text>
</g>
<!-- 5 -->
<g id="node7" class="node"><title>5</title>
<ellipse fill="none" stroke="black" cx="206.391" cy="-65.8794" rx="14.5" ry="11.76"></ellipse>
<text text-anchor="middle" x="206.391" y="-61.6794" font-family="Times,serif" font-size="14.00">5</text>
</g>
<!-- 1&#45;&gt;5 -->
<g id="edge5" class="edge"><title>1-&gt;5</title>
<path fill="none" stroke="black" d="M126.966,-65.8794C141.234,-65.8794 163.972,-65.8794 181.298,-65.8794"></path>
<polygon fill="black" stroke="black" points="181.76,-69.3795 191.76,-65.8794 181.76,-62.3795 181.76,-69.3795"></polygon>
<text text-anchor="middle" x="159.391" y="-70.0794" font-family="Times,serif" font-size="14.00">dupl</text>
</g>
<!-- drain_32_2 -->
<g id="node13" class="node"><title>drain_32_2</title>
<text text-anchor="middle" x="578.085" y="-26.6794" font-family="Times,serif" font-size="14.00">drain_32_2</text>
</g>
<!-- 2&#45;&gt;drain_32_2 -->
<g id="edge15" class="edge"><title>2-&gt;drain_32_2</title>
<path fill="none" stroke="black" d="M174.089,-11.3952C192.043,-10.8033 224.516,-9.87939 252.28,-9.87939 252.28,-9.87939 252.28,-9.87939 495.702,-9.87939 514.05,-9.87939 534.008,-14.9458 549.568,-20.1016"></path>
<polygon fill="black" stroke="black" points="548.969,-22.487 556.386,-22.4589 550.571,-17.856 548.969,-22.487"></polygon>
</g>
<!-- 9 -->
<g id="node8" class="node"><title>9</title>
<ellipse fill="none" stroke="black" cx="300.17" cy="-129.879" rx="14.5" ry="11.76"></ellipse>
<text text-anchor="middle" x="300.17" y="-125.679" font-family="Times,serif" font-size="14.00">9</text>
</g>
<!-- 4&#45;&gt;9 -->
<g id="edge6" class="edge"><title>4-&gt;9</title>
<path fill="none" stroke="black" d="M220.933,-118.798C235.303,-120.833 258.283,-124.088 275.628,-126.545"></path>
<polygon fill="black" stroke="black" points="275.18,-130.016 285.572,-127.953 276.162,-123.085 275.18,-130.016"></polygon>
<text text-anchor="middle" x="253.28" y="-130.079" font-family="Times,serif" font-size="14.00">lossy</text>
</g>
<!-- 11 -->
<g id="node9" class="node"><title>11</title>
<ellipse fill="none" stroke="black" cx="300.17" cy="-65.8794" rx="14.5" ry="11.76"></ellipse>
<text text-anchor="middle" x="300.17" y="-61.6794" font-family="Times,serif" font-size="14.00">11</text>
</g>
<!-- 5&#45;&gt;11 -->
<g id="edge7" class="edge"><title>5-&gt;11</title>
<path fill="none" stroke="black" d="M220.933,-65.8794C235.167,-65.8794 257.85,-65.8794 275.136,-65.8794"></path>
<polygon fill="black" stroke="black" points="275.572,-69.3795 285.572,-65.8794 275.572,-62.3795 275.572,-69.3795"></polygon>
<text text-anchor="middle" x="253.28" y="-70.0794" font-family="Times,serif" font-size="14.00">lossy</text>
</g>
<!-- 9&#45;&gt;13 -->
<g id="edge8" class="edge"><title>9-&gt;13</title>
<path fill="none" stroke="black" d="M310.658,-138.177C316.565,-142.814 324.561,-148.187 332.67,-150.879 407.901,-175.858 503.274,-171.336 549.487,-167.044"></path>
<polygon fill="black" stroke="black" points="550.016,-170.508 559.618,-166.031 549.319,-163.543 550.016,-170.508"></polygon>
<text text-anchor="middle" x="442.381" y="-175.079" font-family="Times,serif" font-size="14.00">dupl</text>
</g>
<!-- 14 -->
<g id="node10" class="node"><title>14</title>
<ellipse fill="none" stroke="black" cx="390.061" cy="-129.879" rx="14.5" ry="11.76"></ellipse>
<text text-anchor="middle" x="390.061" y="-125.679" font-family="Times,serif" font-size="14.00">14</text>
</g>
<!-- 9&#45;&gt;14 -->
<g id="edge9" class="edge"><title>9-&gt;14</title>
<path fill="none" stroke="black" d="M314.903,-129.879C328.319,-129.879 349.016,-129.879 365.139,-129.879"></path>
<polygon fill="black" stroke="black" points="365.425,-133.379 375.425,-129.879 365.424,-126.379 365.425,-133.379"></polygon>
<text text-anchor="middle" x="345.116" y="-134.079" font-family="Times,serif" font-size="14.00">dupl</text>
</g>
<!-- 11&#45;&gt;16 -->
<g id="edge10" class="edge"><title>11-&gt;16</title>
<path fill="none" stroke="black" d="M314.891,-64.6853C348.326,-62.0487 436.59,-56.7313 509.202,-66.8794 523.121,-68.8248 538.214,-72.8484 550.625,-76.6942"></path>
<polygon fill="black" stroke="black" points="549.744,-80.0876 560.335,-79.8334 551.897,-73.427 549.744,-80.0876"></polygon>
<text text-anchor="middle" x="442.381" y="-67.0794" font-family="Times,serif" font-size="14.00">dupl</text>
</g>
<!-- 17 -->
<g id="node11" class="node"><title>17</title>
<ellipse fill="none" stroke="black" cx="390.061" cy="-87.8794" rx="14.5" ry="11.76"></ellipse>
<text text-anchor="middle" x="390.061" y="-83.6794" font-family="Times,serif" font-size="14.00">17</text>
</g>
<!-- 11&#45;&gt;17 -->
<g id="edge11" class="edge"><title>11-&gt;17</title>
<path fill="none" stroke="black" d="M314.139,-69.1256C327.77,-72.5376 349.492,-77.9748 366.045,-82.1182"></path>
<polygon fill="black" stroke="black" points="365.489,-85.5869 376.039,-84.6199 367.188,-78.7964 365.489,-85.5869"></polygon>
<text text-anchor="middle" x="345.116" y="-84.0794" font-family="Times,serif" font-size="14.00">dupl</text>
</g>
<!-- 32 -->
<g id="node12" class="node"><title>32</title>
<ellipse fill="none" stroke="black" cx="494.702" cy="-87.8794" rx="14.5" ry="11.76"></ellipse>
<text text-anchor="middle" x="494.702" y="-83.6794" font-family="Times,serif" font-size="14.00">32</text>
</g>
<!-- 14&#45;&gt;32 -->
<g id="edge12" class="edge"><title>14-&gt;32</title>
<path fill="none" stroke="black" d="M404.251,-126.595C418.794,-122.75 442.714,-115.763 462.202,-106.879 466.255,-105.032 470.438,-102.78 474.379,-100.482"></path>
<polygon fill="black" stroke="black" points="476.277,-103.424 482.961,-95.2045 472.61,-97.4618 476.277,-103.424"></polygon>
<text text-anchor="middle" x="442.381" y="-126.079" font-family="Times,serif" font-size="14.00">merger</text>
</g>
<!-- 17&#45;&gt;32 -->
<g id="edge13" class="edge"><title>17-&gt;32</title>
<path fill="none" stroke="black" d="M404.904,-87.8794C421.525,-87.8794 449.678,-87.8794 469.83,-87.8794"></path>
<polygon fill="black" stroke="black" points="470.079,-91.3795 480.079,-87.8794 470.079,-84.3795 470.079,-91.3795"></polygon>
<text text-anchor="middle" x="442.381" y="-92.0794" font-family="Times,serif" font-size="14.00">merger</text>
</g>
<!-- 32&#45;&gt;drain_32_2 -->
<g id="edge14" class="edge"><title>32-&gt;drain_32_2</title>
<path fill="none" stroke="black" d="M506.341,-80.4276C519.73,-71.0502 542.926,-54.8037 559.093,-43.4807"></path>
<polygon fill="black" stroke="black" points="560.792,-45.2819 565.12,-39.2593 557.981,-41.2683 560.792,-45.2819"></polygon>
</g>
</g>
</svg>